<?xml version="1.0" ?><svg id="Layer_1_1_" style="enable-background:new 0 0 64 64;" version="1.1" viewBox="0 0 64 64" xml:space="preserve" xmlns="http://www.w3.org/2000/svg" xmlns:xlink="http://www.w3.org/1999/xlink"><g><path d="M63,9h-5V1H6v8H1v2h3v28.474L15.643,49H24v2h-2v2h2v2h-2v2h2v2h-2v2h2v2h2v-2h12v2h2v-2h2v-2h-2v-2   h2v-2h-2v-2h2v-2h-2v-2h8.357L60,39.474V11h3V9z M8,3h48v6H8V3z M38,59H26v-2h12V59z M38,55H26v-2h12V55z M38,51H26v-2h12V51z    M58,38.526L47.643,47H16.357L6,38.526V11h52V38.526z" style="fill:#333333;"/><polygon points="48,31 48,29 12,29 12,17 52,17 52,29 50,29 50,31 54,31 54,15 10,15 10,31  " style="fill:#333333;"/><rect height="2" style="fill:#333333;" width="32" x="16" y="33"/><rect height="2" style="fill:#333333;" width="32" x="16" y="37"/><rect height="2" style="fill:#333333;" width="32" x="16" y="41"/><rect height="2" style="fill:#333333;" width="2" x="48" y="25"/><rect height="2" style="fill:#333333;" width="10" x="36" y="25"/></g></svg>